<svg width="62" height="50" viewBox="0 0 62 50" fill="none" xmlns="http://www.w3.org/2000/svg">
<path d="M40.8862 5.06068L44.9986 13.2857C45.5528 14.4232 47.0403 15.5023 48.2944 15.7356L55.732 16.9606C60.4862 17.7481 61.5945 21.1898 58.182 24.6315L52.3778 30.4357C51.4153 31.3982 50.8612 33.294 51.182 34.6648L52.8444 41.8398C54.1569 47.4982 51.1236 49.7148 46.1361 46.7398L39.1653 42.5982C37.9111 41.8398 35.8111 41.8398 34.557 42.5982L27.5861 46.7398C22.5986 49.6857 19.5653 47.4982 20.8778 41.8398L22.5403 34.6648C22.8612 33.3232 22.307 31.4273 21.3445 30.4357L15.5403 24.6315C12.1278 21.219 13.2362 17.7773 17.9903 16.9606L25.4278 15.7356C26.682 15.5315 28.1695 14.4232 28.7236 13.2857L32.8361 5.06068C35.0236 0.598182 38.6403 0.598182 40.8862 5.06068Z" stroke="#FFC90B" stroke-width="3" stroke-linecap="round" stroke-linejoin="round"/>
<path d="M19.332 4.44818H1.83203" stroke="#FFC90B" stroke-width="3" stroke-linecap="round" stroke-linejoin="round"/>
<path d="M10.582 45.2832H1.83203" stroke="#FFC90B" stroke-width="3" stroke-linecap="round" stroke-linejoin="round"/>
<path d="M4.7487 24.8657H1.83203" stroke="#FFC90B" stroke-width="3" stroke-linecap="round" stroke-linejoin="round"/>
</svg>
