<svg width="70" height="71" viewBox="0 0 70 71" fill="none" xmlns="http://www.w3.org/2000/svg">
<path d="M26.0741 50.2453L17.8199 41.991C15.0783 39.2493 15.0783 36.4786 17.8199 33.7369L31.5866 19.9702L46.7241 35.1077C47.4824 35.866 47.4824 37.0912 46.7241 37.8495L34.3283 50.2453C31.5866 52.987 28.8158 52.987 26.0741 50.2453Z" stroke="#16F1FF" stroke-width="3" stroke-miterlimit="10" stroke-linecap="round" stroke-linejoin="round"/>
<path d="M28.8164 17.1995L31.5872 19.9411" stroke="#16F1FF" stroke-width="3" stroke-miterlimit="10" stroke-linecap="round" stroke-linejoin="round"/>
<path d="M15.8652 37.7329L47.0444 36.3622" stroke="#16F1FF" stroke-width="3" stroke-miterlimit="10" stroke-linecap="round" stroke-linejoin="round"/>
<path d="M50.4575 44.0619C50.4575 44.0619 46.6367 48.2033 46.6367 50.7408C46.6367 52.8408 48.3575 54.5618 50.4575 54.5618C52.5575 54.5618 54.2784 52.8408 54.2784 50.7408C54.2492 48.2033 50.4575 44.0619 50.4575 44.0619Z" stroke="#16F1FF" stroke-width="3" stroke-linecap="round" stroke-linejoin="round"/>
<path d="M64.1673 44.6157V27.1157C64.1673 12.5324 58.334 6.69904 43.7506 6.69904H26.2506C11.6673 6.69904 5.83398 12.5324 5.83398 27.1157V44.6157C5.83398 59.199 11.6673 65.0324 26.2506 65.0324H43.7506C58.334 65.0324 64.1673 59.199 64.1673 44.6157Z" stroke="#16F1FF" stroke-width="3" stroke-linecap="round" stroke-linejoin="round"/>
</svg>
