<svg width="70" height="71" viewBox="0 0 70 71" fill="none" xmlns="http://www.w3.org/2000/svg">
<path d="M31.3539 8.01102C33.3664 6.29019 36.6622 6.29019 38.7039 8.01102L43.3123 11.978C44.1873 12.7363 45.8205 13.3488 46.9872 13.3488H51.9456C55.0372 13.3488 57.5747 15.8861 57.5747 18.9777V23.9363C57.5747 25.0738 58.1872 26.7363 58.9455 27.6113L62.9123 32.2195C64.6331 34.232 64.6331 37.5279 62.9123 39.5696L58.9455 44.1778C58.1872 45.0528 57.5747 46.6861 57.5747 47.8528V52.8113C57.5747 55.903 55.0372 58.4403 51.9456 58.4403H46.9872C45.8497 58.4403 44.1873 59.0527 43.3123 59.8111L38.7039 63.7777C36.6914 65.4985 33.3956 65.4985 31.3539 63.7777L26.7456 59.8111C25.8706 59.0527 24.2372 58.4403 23.0706 58.4403H18.0247C14.933 58.4403 12.3956 55.903 12.3956 52.8113V47.8236C12.3956 46.6861 11.7831 45.0528 11.0539 44.1778L7.11641 39.5404C5.42474 37.5279 5.42474 34.2612 7.11641 32.2487L11.0539 27.6113C11.7831 26.7363 12.3956 25.103 12.3956 23.9655V18.9777C12.3956 15.8861 14.933 13.3488 18.0247 13.3488H23.0706C24.2081 13.3488 25.8706 12.7363 26.7456 11.978L31.3539 8.01102Z" stroke="#42F132" stroke-width="3" stroke-linecap="round" stroke-linejoin="round"/>
<path d="M28.8455 44.0906L33.0746 47.3573C33.6288 47.9115 34.8538 48.174 35.6705 48.174H40.833C42.4663 48.174 44.2454 46.9491 44.6538 45.3158L47.9204 35.3406C48.5913 33.4448 47.3663 31.7824 45.3246 31.7824H39.8705C39.0538 31.7824 38.383 31.1117 38.4997 30.1492L39.1704 25.7742C39.4329 24.5492 38.6163 23.1783 37.3913 22.77C36.3121 22.3617 34.9413 22.9157 34.3871 23.7324L28.7871 32.0448" stroke="#42F132" stroke-width="3" stroke-miterlimit="10"/>
<path d="M21.875 44.0908V30.7326C21.875 28.8076 22.6917 28.1367 24.6167 28.1367H25.9875C27.8833 28.1367 28.7292 28.8076 28.7292 30.7326V44.0908C28.7292 45.9866 27.9125 46.6867 25.9875 46.6867H24.6167C22.6917 46.6867 21.875 46.0158 21.875 44.0908Z" stroke="#42F132" stroke-width="3" stroke-linecap="round" stroke-linejoin="round"/>
</svg>
